# xmcd
#
# Track frame offsets:
#	183
#	17108
#	27745
#	39483
#	49358
#	57408
#	67683
#	79158
#	88658
#	101483
#	114058
#	123633
#	133783
#	145933
#	157158
#	171358
#	181683
#	193058
#
# Disc length: 2702
#
# Revision: 1
# Processed by: cddbd v1.5.1PL0 Copyright (c) Steve Scherf et al.
# Submitted via: audiograbber 1.80
# Normalized: r0:DSETVAR1
#
DISCID=fd0a8c12
DTITLE=Various Artist - THE BEST OF THE COUNTRY Vol.2
DYEAR=1900
DGENRE=
TTITLE0=Clinton Howard - Sunny Tennessee
TTITLE1=The Osborne Bros - No, Honey, No
TTITLE2=Pat Boone - I Almost Lost My Mind
TTITLE3=Patsy Cline - Foolin'Round
TTITLE4=Doc Watson - Wanted Man
TTITLE5=Wanda Jackson - It's Only Make Believe
TTITLE6=Elvis Presley - Blue Moon
TTITLE7=June Carter and Carl Smith - Time's a Wastin'
TTITLE8=Johnny Cash - Folson Prison Blues
TTITLE9=Johnny Horton - North To Alaska
TTITLE10=Johnny Cash - Just About Time
TTITLE11=Elvis Presley - Heartbreak Hotel
TTITLE12=George Jones - She Thinks I Still Care
TTITLE13=Patsy Cline - Just Out Of Reach
TTITLE14=Moon Mullican - The Leaves Mustn't Fall
TTITLE15=The Osborne Brothers - Love Pains
TTITLE16=Hank Williams - Window Shopping
TTITLE17=Doc Watson and Fred Price - Walkin' In Jerusalem
EXTD=
EXTT0=
EXTT1=
EXTT2=
EXTT3=
EXTT4=
EXTT5=
EXTT6=
EXTT7=
EXTT8=
EXTT9=
EXTT10=
EXTT11=
EXTT12=
EXTT13=
EXTT14=
EXTT15=
EXTT16=
EXTT17=
PLAYORDER=
